<svg xmlns="http://www.w3.org/2000/svg" viewBox="0 0 1920 1080" width="1920" height="1080"><defs>
    <linearGradient id="sky" x1="0" y1="0" x2="0" y2="1">
      <stop offset="0" stop-color="#0b1638"/><stop offset="0.55" stop-color="#1b2f68"/>
      <stop offset="0.82" stop-color="#5a5a86"/><stop offset="1" stop-color="#d9a866"/>
    </linearGradient>
    <radialGradient id="sun" cx="0.72" cy="0.86" r="0.45">
      <stop offset="0" stop-color="#f3c983" stop-opacity="0.9"/><stop offset="1" stop-color="#f3c983" stop-opacity="0"/>
    </radialGradient>
    <linearGradient id="ground" x1="0" y1="0" x2="0" y2="1">
      <stop offset="0" stop-color="#101d45"/><stop offset="1" stop-color="#0b1638"/>
    </linearGradient></defs><rect x="0" y="0" width="1920" height="1080" rx="0" fill="url(#sky)" /><rect x="0" y="0" width="1920" height="1080" rx="0" fill="url(#sun)" /><circle cx="663" cy="77" r="2" fill="#f4efe6" opacity="0.53"/><circle cx="148" cy="420" r="1" fill="#f4efe6" opacity="0.38"/><circle cx="118" cy="259" r="1" fill="#f4efe6" opacity="0.22"/><circle cx="888" cy="214" r="1" fill="#f4efe6" opacity="0.32"/><circle cx="1128" cy="217" r="1" fill="#f4efe6" opacity="0.61"/><circle cx="253" cy="114" r="1" fill="#f4efe6" opacity="0.49"/><circle cx="812" cy="25" r="1" fill="#f4efe6" opacity="0.22"/><circle cx="1758" cy="68" r="1.5" fill="#f4efe6" opacity="0.41"/><circle cx="1107" cy="60" r="1.5" fill="#f4efe6" opacity="0.48"/><circle cx="1396" cy="92" r="1" fill="#f4efe6" opacity="0.49"/><circle cx="1308" cy="96" r="1.5" fill="#f4efe6" opacity="0.25"/><circle cx="1458" cy="32" r="1" fill="#f4efe6" opacity="0.51"/><circle cx="1016" cy="348" r="2" fill="#f4efe6" opacity="0.59"/><circle cx="953" cy="299" r="2" fill="#f4efe6" opacity="0.38"/><circle cx="508" cy="406" r="1" fill="#f4efe6" opacity="0.55"/><circle cx="499" cy="41" r="1.5" fill="#f4efe6" opacity="0.46"/><circle cx="1792" cy="175" r="2" fill="#f4efe6" opacity="0.34"/><circle cx="149" cy="60" r="2" fill="#f4efe6" opacity="0.28"/><circle cx="700" cy="77" r="2" fill="#f4efe6" opacity="0.41"/><circle cx="1368" cy="39" r="1.5" fill="#f4efe6" opacity="0.37"/><circle cx="717" cy="304" r="2" fill="#f4efe6" opacity="0.49"/><circle cx="934" cy="35" r="1" fill="#f4efe6" opacity="0.67"/><circle cx="970" cy="356" r="1" fill="#f4efe6" opacity="0.23"/><circle cx="1436" cy="158" r="2" fill="#f4efe6" opacity="0.34"/><circle cx="790" cy="342" r="1.5" fill="#f4efe6" opacity="0.21"/><circle cx="945" cy="181" r="1" fill="#f4efe6" opacity="0.51"/><circle cx="1011" cy="30" r="1" fill="#f4efe6" opacity="0.58"/><circle cx="264" cy="378" r="1" fill="#f4efe6" opacity="0.40"/><circle cx="1877" cy="254" r="1" fill="#f4efe6" opacity="0.28"/><circle cx="822" cy="281" r="1.5" fill="#f4efe6" opacity="0.64"/><circle cx="1677" cy="220" r="1.5" fill="#f4efe6" opacity="0.55"/><circle cx="734" cy="349" r="2" fill="#f4efe6" opacity="0.68"/><circle cx="309" cy="42" r="1" fill="#f4efe6" opacity="0.28"/><circle cx="1348" cy="119" r="1" fill="#f4efe6" opacity="0.44"/><circle cx="1206" cy="93" r="1.5" fill="#f4efe6" opacity="0.34"/><circle cx="298" cy="214" r="1.5" fill="#f4efe6" opacity="0.50"/><circle cx="652" cy="64" r="1" fill="#f4efe6" opacity="0.43"/><circle cx="1783" cy="399" r="2" fill="#f4efe6" opacity="0.40"/><circle cx="807" cy="53" r="2" fill="#f4efe6" opacity="0.52"/><circle cx="127" cy="97" r="1" fill="#f4efe6" opacity="0.69"/><circle cx="902" cy="83" r="1" fill="#f4efe6" opacity="0.37"/><circle cx="107" cy="52" r="1" fill="#f4efe6" opacity="0.48"/><circle cx="1098" cy="51" r="1.5" fill="#f4efe6" opacity="0.51"/><circle cx="144" cy="106" r="2" fill="#f4efe6" opacity="0.27"/><circle cx="516" cy="177" r="1.5" fill="#f4efe6" opacity="0.44"/><circle cx="236" cy="249" r="2" fill="#f4efe6" opacity="0.44"/><circle cx="638" cy="43" r="1" fill="#f4efe6" opacity="0.25"/><circle cx="701" cy="379" r="1.5" fill="#f4efe6" opacity="0.44"/><circle cx="1417" cy="82" r="1" fill="#f4efe6" opacity="0.30"/><circle cx="1081" cy="185" r="1" fill="#f4efe6" opacity="0.55"/><circle cx="1872" cy="13" r="1.5" fill="#f4efe6" opacity="0.69"/><circle cx="1768" cy="46" r="1.5" fill="#f4efe6" opacity="0.46"/><circle cx="1860" cy="85" r="1.5" fill="#f4efe6" opacity="0.59"/><circle cx="1090" cy="277" r="1.5" fill="#f4efe6" opacity="0.52"/><circle cx="1255" cy="415" r="1" fill="#f4efe6" opacity="0.60"/><circle cx="1675" cy="205" r="1" fill="#f4efe6" opacity="0.30"/><circle cx="1009" cy="182" r="1" fill="#f4efe6" opacity="0.69"/><circle cx="1618" cy="143" r="2" fill="#f4efe6" opacity="0.33"/><circle cx="1418" cy="309" r="1.5" fill="#f4efe6" opacity="0.42"/><circle cx="1919" cy="370" r="1.5" fill="#f4efe6" opacity="0.68"/><circle cx="746" cy="41" r="1" fill="#f4efe6" opacity="0.25"/><circle cx="962" cy="100" r="1.5" fill="#f4efe6" opacity="0.30"/><circle cx="1278" cy="312" r="1" fill="#f4efe6" opacity="0.44"/><circle cx="1337" cy="176" r="1" fill="#f4efe6" opacity="0.62"/><circle cx="245" cy="198" r="1" fill="#f4efe6" opacity="0.44"/><circle cx="365" cy="222" r="1.5" fill="#f4efe6" opacity="0.24"/><circle cx="1478" cy="202" r="2" fill="#f4efe6" opacity="0.40"/><circle cx="173" cy="371" r="1" fill="#f4efe6" opacity="0.29"/><circle cx="260" cy="14" r="1" fill="#f4efe6" opacity="0.50"/><circle cx="953" cy="412" r="1" fill="#f4efe6" opacity="0.51"/><circle cx="1220" cy="242" r="1.5" fill="#f4efe6" opacity="0.28"/><circle cx="1122" cy="67" r="1" fill="#f4efe6" opacity="0.21"/><circle cx="1487" cy="332" r="1" fill="#f4efe6" opacity="0.46"/><circle cx="1912" cy="71" r="2" fill="#f4efe6" opacity="0.69"/><circle cx="398" cy="108" r="1" fill="#f4efe6" opacity="0.33"/><circle cx="599" cy="256" r="1" fill="#f4efe6" opacity="0.58"/><circle cx="667" cy="132" r="2" fill="#f4efe6" opacity="0.62"/><circle cx="124" cy="378" r="1.5" fill="#f4efe6" opacity="0.65"/><circle cx="1356" cy="298" r="2" fill="#f4efe6" opacity="0.61"/><circle cx="1798" cy="256" r="1" fill="#f4efe6" opacity="0.47"/><circle cx="1072" cy="261" r="1" fill="#f4efe6" opacity="0.64"/><circle cx="1590" cy="93" r="1" fill="#f4efe6" opacity="0.59"/><circle cx="306" cy="88" r="1" fill="#f4efe6" opacity="0.44"/><circle cx="1485" cy="61" r="1" fill="#f4efe6" opacity="0.36"/><circle cx="1061" cy="271" r="2" fill="#f4efe6" opacity="0.59"/><circle cx="217" cy="286" r="1" fill="#f4efe6" opacity="0.32"/><circle cx="567" cy="21" r="1" fill="#f4efe6" opacity="0.45"/><circle cx="1150" cy="14" r="1" fill="#f4efe6" opacity="0.42"/><circle cx="1254" cy="258" r="1" fill="#f4efe6" opacity="0.55"/><circle cx="926" cy="260" r="2" fill="#f4efe6" opacity="0.45"/><rect x="0" y="562" width="81" height="308" rx="0" fill="#1f3470" opacity="0.75"/><rect x="101" y="597" width="83" height="273" rx="0" fill="#1f3470" opacity="0.75"/><rect x="194" y="705" width="107" height="165" rx="0" fill="#1f3470" opacity="0.75"/><rect x="318" y="640" width="65" height="230" rx="0" fill="#1f3470" opacity="0.75"/><rect x="401" y="722" width="90" height="148" rx="0" fill="#1f3470" opacity="0.75"/><rect x="502" y="722" width="104" height="148" rx="0" fill="#1f3470" opacity="0.75"/><rect x="616" y="709" width="88" height="161" rx="0" fill="#1f3470" opacity="0.75"/><rect x="712" y="704" width="96" height="166" rx="0" fill="#1f3470" opacity="0.75"/><rect x="820" y="621" width="67" height="249" rx="0" fill="#1f3470" opacity="0.75"/><rect x="898" y="639" width="62" height="231" rx="0" fill="#1f3470" opacity="0.75"/><rect x="979" y="570" width="70" height="300" rx="0" fill="#1f3470" opacity="0.75"/><rect x="1060" y="560" width="70" height="310" rx="0" fill="#1f3470" opacity="0.75"/><rect x="1147" y="637" width="115" height="233" rx="0" fill="#1f3470" opacity="0.75"/><rect x="1276" y="690" width="103" height="180" rx="0" fill="#1f3470" opacity="0.75"/><rect x="1394" y="717" width="90" height="153" rx="0" fill="#1f3470" opacity="0.75"/><rect x="1499" y="654" width="52" height="216" rx="0" fill="#1f3470" opacity="0.75"/><rect x="1569" y="560" width="106" height="310" rx="0" fill="#1f3470" opacity="0.75"/><rect x="1679" y="656" width="99" height="214" rx="0" fill="#1f3470" opacity="0.75"/><rect x="1798" y="665" width="129" height="205" rx="0" fill="#1f3470" opacity="0.75"/><path d="M-20 360 C 380 210, 760 520, 1150 300 S 1700 160, 1960 260" fill="none" stroke="#e2bf83" stroke-width="4" stroke-dasharray="18 12" stroke-linecap="round" opacity="0.85"/><g transform="translate(1150 300) rotate(-28)"><rect x="-4" y="-60" width="8" height="120" rx="4" fill="#efe3cc"/><ellipse cx="0" cy="-44" rx="2.5" ry="9" fill="#1b2f68"/></g><rect x="820" y="430" width="330" height="470" rx="0" fill="#16285c" /><rect x="814" y="420" width="342" height="12" rx="0" fill="#203a7a" /><rect x="844.0" y="466.0" width="50.0" height="47.4" rx="2" fill="#203a7a" /><rect x="902.0" y="466.0" width="50.0" height="47.4" rx="2" fill="#e2bf83" /><rect x="960.0" y="466.0" width="50.0" height="47.4" rx="2" fill="#203a7a" /><rect x="1018.0" y="466.0" width="50.0" height="47.4" rx="2" fill="#e2bf83" /><rect x="1076.0" y="466.0" width="50.0" height="47.4" rx="2" fill="#203a7a" /><rect x="844.0" y="527.4" width="50.0" height="47.4" rx="2" fill="#e2bf83" /><rect x="902.0" y="527.4" width="50.0" height="47.4" rx="2" fill="#e2bf83" /><rect x="960.0" y="527.4" width="50.0" height="47.4" rx="2" fill="#203a7a" /><rect x="1018.0" y="527.4" width="50.0" height="47.4" rx="2" fill="#e2bf83" /><rect x="1076.0" y="527.4" width="50.0" height="47.4" rx="2" fill="#203a7a" /><rect x="844.0" y="588.9" width="50.0" height="47.4" rx="2" fill="#203a7a" /><rect x="902.0" y="588.9" width="50.0" height="47.4" rx="2" fill="#203a7a" /><rect x="960.0" y="588.9" width="50.0" height="47.4" rx="2" fill="#203a7a" /><rect x="1018.0" y="588.9" width="50.0" height="47.4" rx="2" fill="#203a7a" /><rect x="1076.0" y="588.9" width="50.0" height="47.4" rx="2" fill="#203a7a" /><rect x="844.0" y="650.3" width="50.0" height="47.4" rx="2" fill="#203a7a" /><rect x="902.0" y="650.3" width="50.0" height="47.4" rx="2" fill="#203a7a" /><rect x="960.0" y="650.3" width="50.0" height="47.4" rx="2" fill="#203a7a" /><rect x="1018.0" y="650.3" width="50.0" height="47.4" rx="2" fill="#203a7a" /><rect x="1076.0" y="650.3" width="50.0" height="47.4" rx="2" fill="#e2bf83" /><rect x="844.0" y="711.7" width="50.0" height="47.4" rx="2" fill="#203a7a" /><rect x="902.0" y="711.7" width="50.0" height="47.4" rx="2" fill="#e2bf83" /><rect x="960.0" y="711.7" width="50.0" height="47.4" rx="2" fill="#203a7a" /><rect x="1018.0" y="711.7" width="50.0" height="47.4" rx="2" fill="#e2bf83" /><rect x="1076.0" y="711.7" width="50.0" height="47.4" rx="2" fill="#e2bf83" /><rect x="844.0" y="773.1" width="50.0" height="47.4" rx="2" fill="#e2bf83" /><rect x="902.0" y="773.1" width="50.0" height="47.4" rx="2" fill="#e2bf83" /><rect x="960.0" y="773.1" width="50.0" height="47.4" rx="2" fill="#203a7a" /><rect x="1018.0" y="773.1" width="50.0" height="47.4" rx="2" fill="#e2bf83" /><rect x="1076.0" y="773.1" width="50.0" height="47.4" rx="2" fill="#e2bf83" /><rect x="844.0" y="834.6" width="50.0" height="47.4" rx="2" fill="#e2bf83" /><rect x="902.0" y="834.6" width="50.0" height="47.4" rx="2" fill="#e2bf83" /><rect x="960.0" y="834.6" width="50.0" height="47.4" rx="2" fill="#203a7a" /><rect x="1018.0" y="834.6" width="50.0" height="47.4" rx="2" fill="#203a7a" /><rect x="1076.0" y="834.6" width="50.0" height="47.4" rx="2" fill="#203a7a" /><rect x="1096" y="390" width="40" height="510" rx="0" fill="#1a2d63" /><rect x="1104" y="400" width="24" height="490" rx="2" fill="#2a4a8f" opacity="0.8"/><rect x="1104" y="641.5" width="24" height="34" rx="2" fill="#e2bf83" /><rect x="850" y="368" width="184" height="40" rx="4" fill="#0b1638" /><text x="865" y="397" font-family="'Helvetica Neue', Helvetica, Arial, sans-serif" font-size="24" font-weight="700" fill="#e2bf83" text-anchor="start" letter-spacing="6" opacity="1">SUVESHA</text><rect x="1180" y="340" width="420" height="560" rx="0" fill="#132354" /><rect x="1174" y="330" width="432" height="12" rx="0" fill="#1d3674" /><rect x="1204.0" y="376.0" width="55.3" height="51.0" rx="2" fill="#1d3674" /><rect x="1267.3" y="376.0" width="55.3" height="51.0" rx="2" fill="#f0cf93" /><rect x="1330.7" y="376.0" width="55.3" height="51.0" rx="2" fill="#1d3674" /><rect x="1394.0" y="376.0" width="55.3" height="51.0" rx="2" fill="#1d3674" /><rect x="1457.3" y="376.0" width="55.3" height="51.0" rx="2" fill="#1d3674" /><rect x="1520.7" y="376.0" width="55.3" height="51.0" rx="2" fill="#f0cf93" /><rect x="1204.0" y="441.0" width="55.3" height="51.0" rx="2" fill="#f0cf93" /><rect x="1267.3" y="441.0" width="55.3" height="51.0" rx="2" fill="#1d3674" /><rect x="1330.7" y="441.0" width="55.3" height="51.0" rx="2" fill="#1d3674" /><rect x="1394.0" y="441.0" width="55.3" height="51.0" rx="2" fill="#1d3674" /><rect x="1457.3" y="441.0" width="55.3" height="51.0" rx="2" fill="#f0cf93" /><rect x="1520.7" y="441.0" width="55.3" height="51.0" rx="2" fill="#1d3674" /><rect x="1204.0" y="506.0" width="55.3" height="51.0" rx="2" fill="#1d3674" /><rect x="1267.3" y="506.0" width="55.3" height="51.0" rx="2" fill="#f0cf93" /><rect x="1330.7" y="506.0" width="55.3" height="51.0" rx="2" fill="#1d3674" /><rect x="1394.0" y="506.0" width="55.3" height="51.0" rx="2" fill="#1d3674" /><rect x="1457.3" y="506.0" width="55.3" height="51.0" rx="2" fill="#f0cf93" /><rect x="1520.7" y="506.0" width="55.3" height="51.0" rx="2" fill="#f0cf93" /><rect x="1204.0" y="571.0" width="55.3" height="51.0" rx="2" fill="#1d3674" /><rect x="1267.3" y="571.0" width="55.3" height="51.0" rx="2" fill="#1d3674" /><rect x="1330.7" y="571.0" width="55.3" height="51.0" rx="2" fill="#1d3674" /><rect x="1394.0" y="571.0" width="55.3" height="51.0" rx="2" fill="#f0cf93" /><rect x="1457.3" y="571.0" width="55.3" height="51.0" rx="2" fill="#1d3674" /><rect x="1520.7" y="571.0" width="55.3" height="51.0" rx="2" fill="#1d3674" /><rect x="1204.0" y="636.0" width="55.3" height="51.0" rx="2" fill="#1d3674" /><rect x="1267.3" y="636.0" width="55.3" height="51.0" rx="2" fill="#1d3674" /><rect x="1330.7" y="636.0" width="55.3" height="51.0" rx="2" fill="#1d3674" /><rect x="1394.0" y="636.0" width="55.3" height="51.0" rx="2" fill="#1d3674" /><rect x="1457.3" y="636.0" width="55.3" height="51.0" rx="2" fill="#1d3674" /><rect x="1520.7" y="636.0" width="55.3" height="51.0" rx="2" fill="#f0cf93" /><rect x="1204.0" y="701.0" width="55.3" height="51.0" rx="2" fill="#f0cf93" /><rect x="1267.3" y="701.0" width="55.3" height="51.0" rx="2" fill="#f0cf93" /><rect x="1330.7" y="701.0" width="55.3" height="51.0" rx="2" fill="#f0cf93" /><rect x="1394.0" y="701.0" width="55.3" height="51.0" rx="2" fill="#1d3674" /><rect x="1457.3" y="701.0" width="55.3" height="51.0" rx="2" fill="#1d3674" /><rect x="1520.7" y="701.0" width="55.3" height="51.0" rx="2" fill="#f0cf93" /><rect x="1204.0" y="766.0" width="55.3" height="51.0" rx="2" fill="#1d3674" /><rect x="1267.3" y="766.0" width="55.3" height="51.0" rx="2" fill="#1d3674" /><rect x="1330.7" y="766.0" width="55.3" height="51.0" rx="2" fill="#1d3674" /><rect x="1394.0" y="766.0" width="55.3" height="51.0" rx="2" fill="#f0cf93" /><rect x="1457.3" y="766.0" width="55.3" height="51.0" rx="2" fill="#1d3674" /><rect x="1520.7" y="766.0" width="55.3" height="51.0" rx="2" fill="#1d3674" /><rect x="1204.0" y="831.0" width="55.3" height="51.0" rx="2" fill="#1d3674" /><rect x="1267.3" y="831.0" width="55.3" height="51.0" rx="2" fill="#f0cf93" /><rect x="1330.7" y="831.0" width="55.3" height="51.0" rx="2" fill="#1d3674" /><rect x="1394.0" y="831.0" width="55.3" height="51.0" rx="2" fill="#1d3674" /><rect x="1457.3" y="831.0" width="55.3" height="51.0" rx="2" fill="#1d3674" /><rect x="1520.7" y="831.0" width="55.3" height="51.0" rx="2" fill="#1d3674" /><rect x="1546" y="300" width="40" height="600" rx="0" fill="#1a2d63" /><rect x="1554" y="310" width="24" height="580" rx="2" fill="#2a4a8f" opacity="0.8"/><rect x="1554" y="592.0" width="24" height="34" rx="2" fill="#e2bf83" /><rect x="1210" y="278" width="426" height="40" rx="4" fill="#0b1638" /><text x="1225" y="307" font-family="'Helvetica Neue', Helvetica, Arial, sans-serif" font-size="24" font-weight="700" fill="#e2bf83" text-anchor="start" letter-spacing="6" opacity="1">MAGUS FASHION CITY</text><rect x="1630" y="480" width="300" height="420" rx="0" fill="#16285c" /><rect x="1624" y="470" width="312" height="12" rx="0" fill="#203a7a" /><rect x="1654.0" y="516.0" width="57.0" height="49.3" rx="2" fill="#203a7a" /><rect x="1719.0" y="516.0" width="57.0" height="49.3" rx="2" fill="#203a7a" /><rect x="1784.0" y="516.0" width="57.0" height="49.3" rx="2" fill="#e2bf83" /><rect x="1849.0" y="516.0" width="57.0" height="49.3" rx="2" fill="#e2bf83" /><rect x="1654.0" y="579.3" width="57.0" height="49.3" rx="2" fill="#e2bf83" /><rect x="1719.0" y="579.3" width="57.0" height="49.3" rx="2" fill="#e2bf83" /><rect x="1784.0" y="579.3" width="57.0" height="49.3" rx="2" fill="#203a7a" /><rect x="1849.0" y="579.3" width="57.0" height="49.3" rx="2" fill="#203a7a" /><rect x="1654.0" y="642.7" width="57.0" height="49.3" rx="2" fill="#203a7a" /><rect x="1719.0" y="642.7" width="57.0" height="49.3" rx="2" fill="#203a7a" /><rect x="1784.0" y="642.7" width="57.0" height="49.3" rx="2" fill="#e2bf83" /><rect x="1849.0" y="642.7" width="57.0" height="49.3" rx="2" fill="#203a7a" /><rect x="1654.0" y="706.0" width="57.0" height="49.3" rx="2" fill="#e2bf83" /><rect x="1719.0" y="706.0" width="57.0" height="49.3" rx="2" fill="#e2bf83" /><rect x="1784.0" y="706.0" width="57.0" height="49.3" rx="2" fill="#203a7a" /><rect x="1849.0" y="706.0" width="57.0" height="49.3" rx="2" fill="#e2bf83" /><rect x="1654.0" y="769.3" width="57.0" height="49.3" rx="2" fill="#e2bf83" /><rect x="1719.0" y="769.3" width="57.0" height="49.3" rx="2" fill="#203a7a" /><rect x="1784.0" y="769.3" width="57.0" height="49.3" rx="2" fill="#e2bf83" /><rect x="1849.0" y="769.3" width="57.0" height="49.3" rx="2" fill="#203a7a" /><rect x="1654.0" y="832.7" width="57.0" height="49.3" rx="2" fill="#e2bf83" /><rect x="1719.0" y="832.7" width="57.0" height="49.3" rx="2" fill="#203a7a" /><rect x="1784.0" y="832.7" width="57.0" height="49.3" rx="2" fill="#e2bf83" /><rect x="1849.0" y="832.7" width="57.0" height="49.3" rx="2" fill="#203a7a" /><rect x="1876" y="440" width="40" height="460" rx="0" fill="#1a2d63" /><rect x="1884" y="450" width="24" height="440" rx="2" fill="#2a4a8f" opacity="0.8"/><rect x="1884" y="669.0" width="24" height="34" rx="2" fill="#e2bf83" /><rect x="560" y="570" width="240" height="330" rx="0" fill="#14255a" /><rect x="554" y="560" width="252" height="12" rx="0" fill="#1e3776" /><rect x="584.0" y="606.0" width="58.7" height="44.0" rx="2" fill="#1e3776" /><rect x="650.7" y="606.0" width="58.7" height="44.0" rx="2" fill="#1e3776" /><rect x="717.3" y="606.0" width="58.7" height="44.0" rx="2" fill="#1e3776" /><rect x="584.0" y="664.0" width="58.7" height="44.0" rx="2" fill="#e2bf83" /><rect x="650.7" y="664.0" width="58.7" height="44.0" rx="2" fill="#1e3776" /><rect x="717.3" y="664.0" width="58.7" height="44.0" rx="2" fill="#1e3776" /><rect x="584.0" y="722.0" width="58.7" height="44.0" rx="2" fill="#e2bf83" /><rect x="650.7" y="722.0" width="58.7" height="44.0" rx="2" fill="#1e3776" /><rect x="717.3" y="722.0" width="58.7" height="44.0" rx="2" fill="#1e3776" /><rect x="584.0" y="780.0" width="58.7" height="44.0" rx="2" fill="#1e3776" /><rect x="650.7" y="780.0" width="58.7" height="44.0" rx="2" fill="#1e3776" /><rect x="717.3" y="780.0" width="58.7" height="44.0" rx="2" fill="#1e3776" /><rect x="584.0" y="838.0" width="58.7" height="44.0" rx="2" fill="#1e3776" /><rect x="650.7" y="838.0" width="58.7" height="44.0" rx="2" fill="#1e3776" /><rect x="717.3" y="838.0" width="58.7" height="44.0" rx="2" fill="#1e3776" /><rect x="0" y="890" width="1920" height="190" rx="0" fill="url(#ground)" /><rect x="0" y="950" width="1920" height="70" rx="0" fill="#0e1a40" /><path d="M0 985 H1920" fill="none" stroke="#c99a4f" stroke-width="4" stroke-dasharray="40 30" stroke-linecap="round" opacity="0.6"/><rect x="77" y="900" width="6" height="40" fill="#0a1433"/><circle cx="80" cy="890" r="28" fill="#0f2148"/><rect x="167" y="900" width="6" height="40" fill="#0a1433"/><circle cx="170" cy="890" r="26" fill="#0f2148"/><rect x="297" y="900" width="6" height="40" fill="#0a1433"/><circle cx="300" cy="890" r="34" fill="#0f2148"/><rect x="467" y="900" width="6" height="40" fill="#0a1433"/><circle cx="470" cy="890" r="36" fill="#0f2148"/><rect x="787" y="900" width="6" height="40" fill="#0a1433"/><circle cx="790" cy="890" r="32" fill="#0f2148"/><rect x="1157" y="900" width="6" height="40" fill="#0a1433"/><circle cx="1160" cy="890" r="34" fill="#0f2148"/><rect x="1597" y="900" width="6" height="40" fill="#0a1433"/><circle cx="1600" cy="890" r="28" fill="#0f2148"/><rect x="1877" y="900" width="6" height="40" fill="#0a1433"/><circle cx="1880" cy="890" r="34" fill="#0f2148"/><rect x="260" y="860" width="4" height="90" fill="#0a1433"/><rect x="258" y="856" width="26" height="5" rx="2" fill="#0a1433"/><circle cx="280" cy="864" r="18" fill="#f3c983" opacity="0.25"/><circle cx="280" cy="863" r="4" fill="#f8deb0"/><rect x="700" y="860" width="4" height="90" fill="#0a1433"/><rect x="698" y="856" width="26" height="5" rx="2" fill="#0a1433"/><circle cx="720" cy="864" r="18" fill="#f3c983" opacity="0.25"/><circle cx="720" cy="863" r="4" fill="#f8deb0"/><rect x="1100" y="860" width="4" height="90" fill="#0a1433"/><rect x="1098" y="856" width="26" height="5" rx="2" fill="#0a1433"/><circle cx="1120" cy="864" r="18" fill="#f3c983" opacity="0.25"/><circle cx="1120" cy="863" r="4" fill="#f8deb0"/><rect x="1500" y="860" width="4" height="90" fill="#0a1433"/><rect x="1498" y="856" width="26" height="5" rx="2" fill="#0a1433"/><circle cx="1520" cy="864" r="18" fill="#f3c983" opacity="0.25"/><circle cx="1520" cy="863" r="4" fill="#f8deb0"/><g transform="translate(980 948)"><rect x="0" y="-60" width="150" height="60" rx="4" fill="#f4efe6"/><rect x="150" y="-42" width="52" height="42" rx="6" fill="#22428c"/><rect x="160" y="-36" width="26" height="16" rx="2" fill="#7cc3ea"/><circle cx="34" cy="2" r="13" fill="#070f29"/><circle cx="120" cy="2" r="13" fill="#070f29"/><circle cx="178" cy="2" r="13" fill="#070f29"/></g><g transform="translate(1420 948)"><rect x="0" y="-60" width="150" height="60" rx="4" fill="#e2bf83"/><rect x="150" y="-42" width="52" height="42" rx="6" fill="#22428c"/><rect x="160" y="-36" width="26" height="16" rx="2" fill="#7cc3ea"/><circle cx="34" cy="2" r="13" fill="#070f29"/><circle cx="120" cy="2" r="13" fill="#070f29"/><circle cx="178" cy="2" r="13" fill="#070f29"/></g></svg>